<svg xmlns="http://www.w3.org/2000/svg" width="2185" height="2573" viewBox="0 0 2185 2573" fill="none">
<path d="M2083.37 344.07L1113.33 53.0574C1099.75 48.9809 1085.27 48.9809 1071.69 53.0574L101.629 344.07C70.987 353.261 50 381.469 50 413.463V1480.5C50 1619.29 106.189 1761.36 216.997 1902.77C301.626 2010.78 418.714 2119.22 564.995 2225.11C810.738 2403 1052.72 2512.12 1062.91 2516.67C1072.32 2520.89 1082.41 2523 1092.51 2523C1102.6 2523 1112.7 2520.89 1122.11 2516.67C1132.29 2512.12 1374.27 2403 1620.01 2225.11C1766.3 2119.22 1883.38 2010.78 1968.01 1902.77C2078.82 1761.37 2135 1619.3 2135 1480.5V413.463C2135 381.469 2114.02 353.261 2083.37 344.07Z" fill="#111827"/>
<path fill-rule="evenodd" clip-rule="evenodd" d="M1127.71 5.16795L2097.73 296.177C2097.73 296.177 2097.74 296.178 2097.74 296.178C2149.55 311.718 2185 359.4 2185 413.463V1480.5C2185 1633.4 2123.03 1786.02 2007.37 1933.61L1968.01 1902.77C2078.82 1761.37 2135 1619.3 2135 1480.5V413.463C2135 381.469 2114.02 353.261 2083.37 344.07L1113.33 53.0574C1099.75 48.9809 1085.27 48.9809 1071.69 53.0574L101.629 344.07C70.987 353.261 50 381.469 50 413.463V1480.5C50 1619.29 106.189 1761.36 216.997 1902.77L177.641 1933.61C61.9854 1786.02 0 1633.39 0 1480.5V413.463C0 359.391 35.4682 311.715 87.2623 296.178M87.2636 296.178L1057.32 5.16655C1057.32 5.16639 1057.32 5.16623 1057.32 5.16607C1080.28 -1.72108 1104.74 -1.72299 1127.7 5.16614L1127.71 5.16795M564.995 2225.11C418.714 2119.22 301.626 2010.78 216.997 1902.77L177.641 1933.61C265.892 2046.24 386.735 2157.8 535.676 2265.62L564.995 2225.11ZM1062.91 2516.67C1052.72 2512.12 810.738 2403 564.995 2225.11L535.677 2265.62C785.33 2446.33 1030.75 2557.06 1042.47 2562.3C1058.38 2569.43 1075.45 2573 1092.51 2573C1109.55 2573 1126.61 2569.45 1142.54 2562.31C1153.95 2557.2 1399.52 2446.44 1649.33 2265.62L1620.01 2225.11L1649.33 2265.62C1798.28 2157.8 1919.11 2046.24 2007.37 1933.62L1968.01 1902.77C1883.38 2010.78 1766.3 2119.22 1620.01 2225.11C1374.27 2403 1132.29 2512.12 1122.11 2516.67C1112.7 2520.89 1102.6 2523 1092.51 2523C1082.41 2523 1072.32 2520.89 1062.91 2516.67Z" fill="white"/>
<path fill-rule="evenodd" clip-rule="evenodd" d="M101.629 344.07C70.987 353.261 50 381.469 50 413.463V1480.5C50 1619.29 106.189 1761.36 216.997 1902.77C301.626 2010.78 418.714 2119.22 564.995 2225.11C810.738 2403 1052.72 2512.12 1062.91 2516.67C1072.32 2520.89 1082.41 2523 1092.51 2523C1102.6 2523 1112.7 2520.89 1122.11 2516.67C1132.29 2512.12 1374.27 2403 1620.01 2225.11C1766.3 2119.22 1883.38 2010.78 1968.01 1902.77C2078.82 1761.37 2135 1619.3 2135 1480.5V413.463C2135 381.469 2114.02 353.261 2083.37 344.07L1113.33 53.0574C1099.75 48.9809 1085.27 48.9809 1071.69 53.0574L101.629 344.07ZM1092.51 151.214L2035 433.962V1480.5C2035 1591.1 1990.41 1712.07 1889.3 1841.09C1811.91 1939.85 1702.34 2042.07 1561.38 2144.11C1350.98 2296.4 1142.79 2396.84 1092.51 2420.24C1042.26 2396.85 834.041 2296.42 623.632 2144.11C482.673 2042.07 373.095 1939.85 295.71 1841.1C194.596 1712.06 150 1591.09 150 1480.5V433.962L1092.51 151.214ZM1103.75 2425.4L1103.76 2425.4L1103.78 2425.41C1103.77 2425.41 1103.76 2425.4 1103.75 2425.4Z" fill="white"/>
<path fill-rule="evenodd" clip-rule="evenodd" d="M1271.84 691.908L1702.07 1122.47C1702.08 1122.48 1702.08 1122.48 1702.09 1122.49C1713.56 1133.97 1722.66 1147.6 1728.88 1162.59C1735.09 1177.6 1738.29 1193.68 1738.29 1209.93C1738.29 1226.17 1735.09 1242.25 1728.88 1257.26C1722.66 1272.26 1713.56 1285.89 1702.08 1297.36C1702.08 1297.37 1702.08 1297.37 1702.07 1297.38L1271.83 1727.85L1182.4 1638.33L1610.58 1209.92L1182.39 781.417L1271.84 691.908Z" fill="white"/>
<path fill-rule="evenodd" clip-rule="evenodd" d="M518.352 1133.36L948.591 702.797L1024.32 778.588L594.07 1209.17C593.444 1209.8 592.932 1210.56 592.593 1211.37C592.254 1212.19 592.08 1213.07 592.08 1213.95C592.08 1214.84 592.254 1215.72 592.593 1216.54C592.932 1217.35 593.429 1218.1 594.055 1218.72L1024.32 1649.22L948.595 1725.02L518.352 1294.55C518.349 1294.54 518.356 1294.55 518.352 1294.55C507.777 1283.97 499.376 1271.4 493.651 1257.57C487.924 1243.75 484.977 1228.92 484.977 1213.95C484.977 1198.99 487.924 1184.16 493.651 1170.34C499.375 1156.51 507.779 1143.94 518.352 1133.36C518.347 1133.37 518.357 1133.36 518.352 1133.36Z" fill="white"/>
<path d="M998.188 1536.09H862.492C846.433 1536.09 833.414 1549.12 833.414 1565.19V1700.99C833.414 1717.06 846.433 1730.09 862.492 1730.09H998.188C1014.25 1730.09 1027.27 1717.06 1027.27 1700.99V1565.19C1027.27 1549.12 1014.25 1536.09 998.188 1536.09Z" fill="white"/>
<path d="M998.188 701.893H862.492C846.433 701.893 833.414 714.921 833.414 730.993V866.792C833.414 882.864 846.433 895.892 862.492 895.892H998.188C1014.25 895.892 1027.27 882.864 1027.27 866.792V730.993C1027.27 714.921 1014.25 701.893 998.188 701.893Z" fill="white"/>
<path d="M610.485 1118.99H474.789C458.729 1118.99 445.711 1132.02 445.711 1148.09V1283.89C445.711 1299.96 458.729 1312.99 474.789 1312.99H610.485C626.544 1312.99 639.563 1299.96 639.563 1283.89V1148.09C639.563 1132.02 626.544 1118.99 610.485 1118.99Z" fill="white"/>
</svg>